HIERARCHY
ROOT Hips
{
	OFFSET 0.000000 0.000000 0.000000
	CHANNELS 6 Xposition Yposition Zposition Xrotation Yrotation Zrotation
	JOINT LeftUpLeg_virtual
	{
		OFFSET 0.000000 0.000000 0.000000
		CHANNELS 3 Xrotation Yrotation Zrotation
		JOINT LeftUpLeg
		{
			OFFSET 13.026900 -6.336304 -1.092800
			CHANNELS 3 Xrotation Yrotation Zrotation
			JOINT LeftLeg
			{
				OFFSET 0.524474 -46.096886 9.782700
				CHANNELS 3 Xrotation Yrotation Zrotation
				JOINT LeftFoot
				{
					OFFSET -0.524474 -53.427422 -12.948200
					CHANNELS 3 Xrotation Yrotation Zrotation
					JOINT LeftToeBase
					{
						OFFSET 0.192200 -14.009700 16.364100
						CHANNELS 3 Xrotation Yrotation Zrotation
						JOINT LeftToe_End
						{
							OFFSET -1.784700 -0.561700 9.474800
							CHANNELS 3 Xrotation Yrotation Zrotation
							End Site
							{
								OFFSET 0 0 0
							}
						}
					}
				}
			}
		}
	}
	JOINT RightUpLeg_virtual
	{
		OFFSET 0.000000 0.000000 0.000000
		CHANNELS 3 Xrotation Yrotation Zrotation
		JOINT RightUpLeg
		{
			OFFSET -12.883000 -6.336304 -1.092800
			CHANNELS 3 Xrotation Yrotation Zrotation
			JOINT RightLeg
			{
				OFFSET -0.524587 -46.096825 9.782800
				CHANNELS 3 Xrotation Yrotation Zrotation
				JOINT RightFoot
				{
					OFFSET 0.524587 -53.427383 -12.948300
					CHANNELS 3 Xrotation Yrotation Zrotation
					JOINT RightToeBase
					{
						OFFSET -0.192200 -14.009700 16.364100
						CHANNELS 3 Xrotation Yrotation Zrotation
						JOINT RightToe_End
						{
							OFFSET 1.784700 -0.561700 9.474800
							CHANNELS 3 Xrotation Yrotation Zrotation
							End Site
							{
								OFFSET 0 0 0
							}
						}
					}
				}
			}
		}
	}
	JOINT Spine_virtual
	{
		OFFSET 0.000000 0.000000 0.000000
		CHANNELS 3 Xrotation Yrotation Zrotation
		JOINT Spine
		{
			OFFSET 0.072000 7.257294 -0.789700
			CHANNELS 3 Xrotation Yrotation Zrotation
			JOINT Spine1
			{
				OFFSET 0.000000 12.508769 -0.658067
				CHANNELS 3 Xrotation Yrotation Zrotation
				JOINT Spine1_split
				{
					OFFSET 0.000000 12.508769 -0.658067
					CHANNELS 3 Xrotation Yrotation Zrotation
					JOINT Spine2
					{
						OFFSET 0.000000 12.508769 -0.658067
						CHANNELS 3 Xrotation Yrotation Zrotation
						JOINT Neck_virtual
						{
							OFFSET 0.000000 0.000000 0.000000
							CHANNELS 3 Xrotation Yrotation Zrotation
							JOINT Neck
							{
								OFFSET 0.000000 14.033295 7.520400
								CHANNELS 3 Xrotation Yrotation Zrotation
								JOINT Head
								{
									OFFSET 0.000000 8.198502 5.703100
									CHANNELS 3 Xrotation Yrotation Zrotation
									JOINT HeadTop_End
									{
										OFFSET 0.000000 17.760803 13.332701
										CHANNELS 3 Xrotation Yrotation Zrotation
										End Site
										{
											OFFSET 0 0 0
										}
									}
								}
							}
						}
						JOINT LeftShoulder_virtual
						{
							OFFSET 0.000000 0.000000 0.000000
							CHANNELS 3 Xrotation Yrotation Zrotation
							JOINT LeftShoulder
							{
								OFFSET 6.292450 5.785301 -0.669000
								CHANNELS 3 Xrotation Yrotation Zrotation
								JOINT LeftShoulder_split
								{
									OFFSET 6.292450 5.785301 -0.669000
									CHANNELS 3 Xrotation Yrotation Zrotation
									JOINT LeftArm
									{
										OFFSET 13.907140 -6.093903 1.965100
										CHANNELS 3 Xrotation Yrotation Zrotation
										JOINT LeftForeArm
										{
											OFFSET 34.140198 0.000000 0.000000
											CHANNELS 3 Xrotation Yrotation Zrotation
											JOINT LeftHand
											{
												OFFSET 40.960209 0.000000 0.000000
												CHANNELS 3 Xrotation Yrotation Zrotation
												End Site
												{
													OFFSET 0 0 0
												}
											}
										}
									}
								}
							}
						}
						JOINT RightShoulder_virtual
						{
							OFFSET 0.000000 0.000000 0.000000
							CHANNELS 3 Xrotation Yrotation Zrotation
							JOINT RightShoulder
							{
								OFFSET -6.292450 5.785301 -0.669000
								CHANNELS 3 Xrotation Yrotation Zrotation
								JOINT RightShoulder_split
								{
									OFFSET -6.292450 5.785301 -0.669000
									CHANNELS 3 Xrotation Yrotation Zrotation
									JOINT RightArm
									{
										OFFSET -13.907140 -6.093903 1.965100
										CHANNELS 3 Xrotation Yrotation Zrotation
										JOINT RightForeArm
										{
											OFFSET -34.140198 0.000000 0.000000
											CHANNELS 3 Xrotation Yrotation Zrotation
											JOINT RightHand
											{
												OFFSET -40.960209 0.000000 0.000000
												CHANNELS 3 Xrotation Yrotation Zrotation
												End Site
												{
													OFFSET 0 0 0
												}
											}
										}
									}
								}
							}
						}
					}
				}
			}
		}
	}
}
MOTION
Frames: 9
Frame Time: 0.03333333
8.785507 166.809586 386.090729 0.000000 0.000000 0.000000 3.137862 -23.333024 21.365129 -65.013313 -16.238292 5.456631 81.254983 20.023126 -6.883413 -15.149102 1.432961 4.317532 12.416805 1.617738 -8.913785 0.000000 0.000000 0.000000 2.341747 -28.776041 20.990816 -106.126701 -17.172357 -18.347312 87.780963 11.974572 4.036783 37.564975 12.609834 -14.246404 14.376870 -1.452670 -17.243591 0.000000 0.000000 0.000000 7.797423 -24.859215 21.727472 34.387970 -1.192568 -27.944747 4.712804 -4.572783 3.675999 0.137761 1.055469 -0.154757 0.000000 0.000000 0.000000 9.614576 -1.079053 2.273404 -18.439448 0.889162 -4.102131 -41.957353 75.158104 32.643106 0.000000 0.000000 0.000000 10.159502 -3.327353 2.735573 3.875025 -6.507668 1.987464 6.374642 -0.119982 0.362886 -86.508519 -9.611925 -4.666023 -18.532682 -22.367500 -5.606437 0.000000 0.000000 0.000000 12.750389 -2.401998 2.274791 8.163603 27.883551 -11.388847 1.132744 6.226634 17.029740 -57.208070 -29.533817 18.539007 -93.450464 55.103576 73.851550 0.000000 0.000000 0.000000 
9.714565 164.782562 399.393188 0.000000 0.000000 0.000000 6.410070 -22.279865 21.916967 -56.895083 -12.368264 7.446843 71.292114 20.216687 -3.907660 -16.605868 2.222752 3.889540 11.562223 1.484051 -8.427870 0.000000 0.000000 0.000000 5.496174 -25.608102 21.593831 -100.859300 -20.062461 -17.727023 65.577623 7.963440 6.574977 34.282133 9.487096 -13.671180 16.321118 -0.873803 -17.810931 0.000000 0.000000 0.000000 9.364621 -25.093866 21.918009 33.983111 -0.045647 -26.085066 5.217654 -4.256958 3.456248 0.322998 0.551530 0.075025 0.000000 0.000000 0.000000 10.466625 -0.771822 2.048471 -13.534416 1.623247 -6.054671 -44.341089 71.345342 27.951888 0.000000 0.000000 0.000000 10.399310 -3.015889 2.593760 3.690726 -4.413271 -0.302948 7.951112 -0.461095 0.699260 -82.338463 -11.377521 -1.569180 -20.823857 -24.403697 -8.845606 0.000000 0.000000 0.000000 12.778706 -2.405217 1.882762 6.911090 25.851224 -7.578058 -0.943323 6.039739 14.387664 -45.267017 -31.097612 24.882562 -97.242127 56.801031 77.883486 0.000000 0.000000 0.000000 
10.307692 160.790222 413.304199 0.000000 0.000000 0.000000 9.430119 -20.530430 22.071131 -52.423160 -7.243202 9.643594 60.632341 18.264313 -0.045413 -15.865959 1.308674 0.971352 10.419314 1.193332 -7.839234 0.000000 0.000000 0.000000 8.219618 -21.316508 21.996872 -91.408469 -21.179500 -16.429014 43.471302 3.288125 6.829155 29.236836 5.226230 -11.516694 16.623372 0.043111 -17.395587 0.000000 0.000000 0.000000 10.440241 -24.787844 21.893041 32.173808 1.621454 -24.179549 5.870170 -3.978967 3.174938 0.513907 0.083430 0.196321 0.000000 0.000000 0.000000 11.067655 -0.536555 1.933120 -8.506569 1.719583 -7.387310 -41.745693 67.598614 18.543366 0.000000 0.000000 0.000000 10.691083 -2.830469 2.560138 3.346803 -1.473618 -2.580026 9.783779 -0.902554 0.942971 -76.739470 -13.173520 1.739035 -23.166533 -25.803288 -12.676175 0.000000 0.000000 0.000000 12.810678 -2.441617 1.605087 5.455474 22.563371 -3.890069 -3.056584 6.274426 11.306122 -31.006385 -31.545922 32.310821 -100.742333 59.026905 82.495230 0.000000 0.000000 0.000000 
10.801723 154.700729 427.639496 0.000000 0.000000 0.000000 11.877982 -18.418860 21.683844 -52.422040 -1.934180 12.246422 51.469785 13.613665 3.664200 -12.515308 -1.886584 -5.438313 8.310492 0.782896 -6.768077 0.000000 0.000000 0.000000 10.254848 -17.363753 21.694856 -79.205517 -19.891394 -14.864932 27.952952 1.386079 5.148554 23.960783 1.695726 -6.322034 13.879742 1.330986 -16.454071 0.000000 0.000000 0.000000 11.388958 -24.410089 21.712186 29.275881 3.382202 -22.176367 6.324963 -3.839784 2.909187 0.555668 -0.222148 0.188065 0.000000 0.000000 0.000000 11.236908 -0.500825 1.962797 -3.909070 1.217046 -7.221242 -33.456042 62.802613 5.575417 0.000000 0.000000 0.000000 10.866685 -2.862959 2.703235 2.946178 1.757103 -4.140314 11.834653 -1.304842 1.205774 -71.055332 -14.551713 5.349964 -25.801598 -26.198321 -17.076953 0.000000 0.000000 0.000000 12.616563 -2.662419 1.551544 3.909886 18.238704 -0.414829 -4.967423 7.220847 8.572741 -16.328858 -30.814323 39.401982 -105.110000 61.389358 88.631526 0.000000 0.000000 0.000000 
11.073936 146.841339 442.186340 0.000000 0.000000 0.000000 13.891952 -17.468224 20.642259 -55.961389 2.883842 15.470558 45.775388 8.056197 6.346126 -7.800681 -7.127414 -13.006159 5.134917 0.178826 -4.813312 0.000000 0.000000 0.000000 11.966503 -15.189769 20.592858 -65.258025 -16.579666 -12.881225 19.474237 2.153053 3.337906 17.471200 -1.011032 0.685410 9.559978 2.580822 -15.324880 0.000000 0.000000 0.000000 12.211665 -24.116512 21.007498 25.690421 4.930841 -19.950002 6.345060 -3.890185 2.673309 0.419020 -0.552462 0.067088 0.000000 0.000000 0.000000 10.723112 -0.685649 2.050577 -0.212335 0.176831 -5.088837 -22.727390 55.183861 -6.961510 0.000000 0.000000 0.000000 10.696356 -3.011181 2.973348 2.437474 4.745297 -4.468305 12.870959 -1.365141 0.682916 -66.442018 -15.092322 8.767670 -28.906050 -26.159555 -22.186275 0.000000 0.000000 0.000000 11.970882 -3.078591 1.649449 2.356360 13.526560 3.145179 -5.978349 8.827208 6.227180 -2.685215 -29.664717 45.435573 -111.931521 63.275542 97.701813 0.000000 0.000000 0.000000 
11.063686 137.907516 457.195496 0.000000 0.000000 0.000000 15.402353 -17.923460 18.591099 -61.379714 7.152751 19.634484 43.046516 3.933774 8.022157 -3.533250 -12.593614 -18.491086 2.051957 -0.720385 -2.072132 0.000000 0.000000 0.000000 13.147536 -14.258311 18.449371 -50.119054 -12.111546 -10.315521 15.957448 4.097474 1.898238 7.105752 -3.365776 6.431295 6.572643 3.436986 -14.233225 0.000000 0.000000 0.000000 13.041456 -24.021126 19.442712 22.193624 6.224076 -17.368736 5.814527 -3.956318 2.476471 0.259452 -0.498501 -0.058829 0.000000 0.000000 0.000000 9.502975 -0.880153 2.084743 2.492699 -1.160965 -1.151167 -13.703209 44.078988 -15.489276 0.000000 0.000000 0.000000 9.884428 -3.135193 3.208591 1.724816 6.968237 -3.680911 12.962306 -1.632186 -0.371028 -63.390972 -14.518875 11.388624 -32.908995 -27.272254 -28.426966 0.000000 0.000000 0.000000 10.771046 -3.491800 1.780751 0.905215 9.216038 6.612091 -5.846459 9.815234 4.828018 9.229991 -28.636722 49.812406 -120.972800 63.904192 109.159694 0.000000 0.000000 0.000000 
11.131660 128.817749 471.869476 0.000000 0.000000 0.000000 16.541721 -20.034121 15.772264 -66.738099 10.701911 24.288388 42.210111 2.359814 8.987206 -0.659743 -16.312988 -19.945973 -0.460710 -1.971997 1.247268 0.000000 0.000000 0.000000 13.852383 -14.480389 15.184426 -35.085142 -7.663728 -8.025645 16.078047 5.345294 1.026147 -5.974167 -5.641519 8.256111 5.995809 3.947454 -13.238237 0.000000 0.000000 0.000000 13.651772 -24.247631 16.868868 19.470299 7.426086 -14.429091 4.830133 -3.797457 2.328328 0.086043 -0.183946 -0.094772 0.000000 0.000000 0.000000 7.728839 -0.955273 2.061508 3.970099 -2.444286 3.868813 -7.898498 30.826119 -19.795772 0.000000 0.000000 0.000000 8.349315 -3.072552 3.275503 0.827321 8.022160 -2.321620 11.840613 -1.912449 -2.132886 -61.907735 -12.834935 12.311120 -38.127598 -30.481929 -36.234136 0.000000 0.000000 0.000000 9.000445 -3.660776 1.858156 -0.497843 5.957059 9.946779 -4.347952 10.074071 4.128316 18.547799 -28.378861 52.113654 -128.861354 63.169291 119.161748 0.000000 0.000000 0.000000 
10.881245 120.881104 485.919281 0.000000 0.000000 0.000000 16.746101 -23.487789 12.419312 -70.684426 13.942592 28.801682 42.352487 2.813822 9.362210 1.174666 -17.593838 -18.360996 -2.262046 -3.354627 4.544558 0.000000 0.000000 0.000000 13.615443 -15.870052 11.561309 -22.486658 -4.332201 -6.658094 18.185175 5.221894 0.843157 -17.459188 -6.936732 6.731513 6.464481 4.322746 -12.380486 0.000000 0.000000 0.000000 13.655730 -24.374027 13.283352 17.990739 8.643081 -11.453575 3.598847 -3.313221 2.263762 -0.016342 0.257501 -0.081357 0.000000 0.000000 0.000000 5.584291 -0.743611 2.031636 4.020526 -3.450140 8.913658 -5.274934 17.638636 -21.966889 0.000000 0.000000 0.000000 6.216306 -2.758523 3.126200 -0.159391 7.684521 -0.971906 10.537223 -1.836904 -4.088981 -61.729699 -10.137260 11.166434 -44.684511 -35.710790 -45.679527 0.000000 0.000000 0.000000 6.792312 -3.406902 1.898615 -1.863633 4.001530 13.125284 -1.720268 9.544172 3.367512 24.740830 -29.426941 52.369461 -132.102170 62.363520 123.938864 0.000000 0.000000 0.000000 
10.901196 114.697144 499.737244 0.000000 0.000000 0.000000 15.483940 -26.428924 8.716664 -72.893247 16.857622 32.610072 42.790169 3.559250 9.035073 3.212624 -16.850679 -16.909619 -3.441361 -4.543342 7.305458 0.000000 0.000000 0.000000 12.224382 -18.247429 7.933192 -13.300199 -2.442634 -6.164277 20.202334 3.901017 1.318135 -23.954773 -6.783169 5.149914 2.875196 5.091202 -11.578656 0.000000 0.000000 0.000000 12.798043 -23.547791 9.296728 17.957477 9.793945 -8.982710 2.386692 -2.591909 2.353193 0.009656 0.735557 0.031851 0.000000 0.000000 0.000000 3.344503 -0.251842 2.117141 2.702097 -3.859223 12.868006 -5.579260 6.847978 -23.963597 0.000000 0.000000 0.000000 3.785509 -2.251324 2.905847 -1.110281 5.888815 -0.257735 10.513229 -1.293633 -5.114757 -63.098305 -7.146537 7.908060 -52.023468 -41.999783 -55.966089 0.000000 0.000000 0.000000 4.338491 -2.752847 2.051655 -3.227588 3.159947 15.916984 0.749867 8.464577 1.965644 27.834290 -31.541312 50.788983 -130.027609 62.439868 122.609586 0.000000 0.000000 0.000000 
